G04 (created by PCBNEW (2013-jul-07)-stable) date Sat 04 Apr 2015 10:28:46 BST*
%MOIN*%
G04 Gerber Fmt 3.4, Leading zero omitted, Abs format*
%FSLAX34Y34*%
G01*
G70*
G90*
G04 APERTURE LIST*
%ADD10C,0.00590551*%
%ADD11R,0.06X0.06*%
%ADD12C,0.06*%
%ADD13C,0.035*%
%ADD14C,0.01*%
G04 APERTURE END LIST*
G54D10*
G54D11*
X38736Y-18503D03*
G54D12*
X37736Y-18503D03*
X36736Y-18503D03*
X35736Y-18503D03*
X34736Y-18503D03*
X33736Y-18503D03*
X32736Y-18503D03*
X31736Y-18503D03*
G54D11*
X20940Y-29921D03*
G54D12*
X21940Y-29921D03*
X22940Y-29921D03*
X23940Y-29921D03*
G54D11*
X27346Y-35629D03*
G54D12*
X28346Y-35629D03*
X29346Y-35629D03*
G54D11*
X21405Y-16543D03*
G54D12*
X21405Y-15543D03*
X22405Y-16543D03*
X22405Y-15543D03*
X23405Y-16543D03*
X23405Y-15543D03*
X24405Y-16543D03*
X24405Y-15543D03*
X25405Y-16543D03*
X25405Y-15543D03*
X26405Y-16543D03*
X26405Y-15543D03*
X27405Y-16543D03*
X27405Y-15543D03*
X28405Y-16543D03*
X28405Y-15543D03*
X29405Y-16543D03*
X29405Y-15543D03*
X30405Y-16543D03*
X30405Y-15543D03*
X31405Y-16543D03*
X31405Y-15543D03*
X32405Y-16543D03*
X32405Y-15543D03*
X33405Y-16543D03*
X33405Y-15543D03*
G54D11*
X23956Y-19094D03*
G54D12*
X22956Y-19094D03*
X21956Y-19094D03*
X20956Y-19094D03*
X19956Y-19094D03*
X18956Y-19094D03*
G54D13*
X29429Y-18602D03*
X32086Y-20570D03*
X26377Y-19980D03*
X28641Y-20472D03*
G54D14*
X20940Y-29921D02*
X20940Y-31570D01*
X25000Y-35629D02*
X27346Y-35629D01*
X20940Y-31570D02*
X25000Y-35629D01*
X21956Y-19094D02*
X21956Y-23909D01*
X20940Y-24925D02*
X20940Y-29921D01*
X21956Y-23909D02*
X20940Y-24925D01*
X21405Y-16543D02*
X21405Y-18543D01*
X21405Y-18543D02*
X21956Y-19094D01*
X23956Y-19094D02*
X23956Y-23188D01*
X21940Y-25204D02*
X21940Y-29921D01*
X23956Y-23188D02*
X21940Y-25204D01*
X23956Y-19094D02*
X28937Y-19094D01*
X28937Y-19094D02*
X29429Y-18602D01*
X23405Y-15543D02*
X23515Y-15543D01*
X23917Y-19055D02*
X23956Y-19094D01*
X23917Y-15944D02*
X23917Y-19055D01*
X23515Y-15543D02*
X23917Y-15944D01*
X37736Y-18503D02*
X37736Y-16673D01*
X32988Y-14960D02*
X32405Y-15543D01*
X36023Y-14960D02*
X32988Y-14960D01*
X37736Y-16673D02*
X36023Y-14960D01*
X28346Y-24311D02*
X28346Y-35629D01*
X32086Y-20570D02*
X28346Y-24311D01*
X30405Y-16543D02*
X30405Y-18791D01*
X34751Y-19488D02*
X35736Y-18503D01*
X31102Y-19488D02*
X34751Y-19488D01*
X30405Y-18791D02*
X31102Y-19488D01*
X34736Y-18503D02*
X34736Y-18397D01*
X32988Y-17125D02*
X32405Y-16543D01*
X33464Y-17125D02*
X32988Y-17125D01*
X34736Y-18397D02*
X33464Y-17125D01*
X23940Y-29700D02*
X23940Y-29921D01*
X26377Y-27263D02*
X23940Y-29700D01*
X26377Y-19980D02*
X26377Y-27263D01*
X24220Y-31200D02*
X22940Y-29921D01*
X26279Y-31200D02*
X24220Y-31200D01*
X27755Y-29724D02*
X26279Y-31200D01*
X27755Y-23523D02*
X27755Y-29724D01*
X28641Y-22637D02*
X27755Y-23523D01*
X28641Y-20472D02*
X28641Y-22637D01*
X19956Y-19094D02*
X19956Y-18035D01*
X23625Y-14763D02*
X24405Y-15543D01*
X21259Y-14763D02*
X23625Y-14763D01*
X20472Y-15551D02*
X21259Y-14763D01*
X20472Y-17519D02*
X20472Y-15551D01*
X19956Y-18035D02*
X20472Y-17519D01*
M02*
