M48
;DRILL file {Pcbnew (2013-jul-07)-stable} date Sat 04 Apr 2015 10:28:49 BST
;FORMAT={-:-/ absolute / inch / decimal}
FMAT,2
INCH,TZ
T1C0.025
T2C0.040
%
G90
G05
M72
T1
X2.6378Y-1.998
X2.8642Y-2.0472
X2.9429Y-1.8602
X3.2087Y-2.0571
T2
X1.8957Y-1.9094
X1.9957Y-1.9094
X2.0941Y-2.9921
X2.0957Y-1.9094
X2.1406Y-1.5543
X2.1406Y-1.6543
X2.1941Y-2.9921
X2.1957Y-1.9094
X2.2406Y-1.5543
X2.2406Y-1.6543
X2.2941Y-2.9921
X2.2957Y-1.9094
X2.3406Y-1.5543
X2.3406Y-1.6543
X2.3941Y-2.9921
X2.3957Y-1.9094
X2.4406Y-1.5543
X2.4406Y-1.6543
X2.5406Y-1.5543
X2.5406Y-1.6543
X2.6406Y-1.5543
X2.6406Y-1.6543
X2.7346Y-3.563
X2.7406Y-1.5543
X2.7406Y-1.6543
X2.8346Y-3.563
X2.8406Y-1.5543
X2.8406Y-1.6543
X2.9346Y-3.563
X2.9406Y-1.5543
X2.9406Y-1.6543
X3.0406Y-1.5543
X3.0406Y-1.6543
X3.1406Y-1.5543
X3.1406Y-1.6543
X3.1736Y-1.8504
X3.2406Y-1.5543
X3.2406Y-1.6543
X3.2736Y-1.8504
X3.3406Y-1.5543
X3.3406Y-1.6543
X3.3736Y-1.8504
X3.4736Y-1.8504
X3.5736Y-1.8504
X3.6736Y-1.8504
X3.7736Y-1.8504
X3.8736Y-1.8504
T0
M30
